# xmcd CD database file
#
# Track frame offsets:
#	150
#	19625
#	41037
#	62165
#	74627
#	89907
#	103707
#	116827
#	135342
#	151892
#	176157
#	193250
#	213880
#
# Disc length: 3079 seconds
#
# Revision: 1
# Processed by: cddbd v1.5.2PL0 Copyright (c) Steve Scherf et al.
# Submitted via: CDex 1.51
#
DISCID=c20c050d
DTITLE=Ronnie Earl and the Broadcasters - Soul Searching
DYEAR=1988
DGENRE=Blues
TTITLE0=Backstroke
TTITLE1=Ships Passing in the Night
TTITLE2=You're the One
TTITLE3=Soul Searchin'
TTITLE4=It's My Soul
TTITLE5=Evening Sun
TTITLE6=Jerry Jumps In
TTITLE7=After All
TTITLE8=I Don't Believe
TTITLE9=Blues for Bone
TTITLE10=Sufferin'
TTITLE11=Love at First Sight (bonus)
TTITLE12=I'm Holding On (bonus)
EXTD=YEAR: 1988
EXTT0=
EXTT1=
EXTT2=
EXTT3=
EXTT4=
EXTT5=
EXTT6=
EXTT7=
EXTT8=
EXTT9=
EXTT10=
EXTT11=
EXTT12=
PLAYORDER=
